<svg version="1.1" xmlns="http://www.w3.org/2000/svg" xmlns:xlink="http://www.w3.org/1999/xlink" width="1796" height="992"><defs/><g><g transform="translate(-30,-62) scale(1,1)"><rect fill="#C0C0C0" stroke="none" x="47" y="487" width="128.642578125" height="57" opacity="0.2"/></g><g transform="translate(-30,-62) scale(1,1)"><rect fill="#ffffff" stroke="none" x="40" y="480" width="128.642578125" height="57"/></g><g transform="translate(-30,-62) scale(1,1)"><path fill="none" stroke="#000000" d="M 40 480 L 168.642578125 480 L 168.642578125 537 L 40 537 L 40 480 Z Z" stroke-miterlimit="10"/></g><g transform="translate(-30,-62) scale(1,1)"><path fill="none" stroke="#000000" d="M 40 505 L 168.642578125 505" stroke-miterlimit="10"/></g><g transform="translate(-30,-62) scale(1,1)"><path fill="none" stroke="#000000" d="M 40 528 L 168.642578125 528" stroke-miterlimit="10"/></g><g transform="translate(-30,-62) scale(1,1)"><g><path fill="none" stroke="none"/><text fill="#000000" stroke="none" font-family="Arial" font-size="13px" font-style="normal" font-weight="bold" text-decoration="none" x="67.466796875" y="499.5">Compétence</text></g></g><g transform="translate(-30,-62) scale(1,1)"><g><path fill="none" stroke="none"/><text fill="#000000" stroke="none" font-family="Arial" font-size="13px" font-style="normal" font-weight="normal" text-decoration="none" x="45" y="522.5">+Description: string</text></g></g><g transform="translate(-30,-62) scale(1,1)"><rect fill="#C0C0C0" stroke="none" x="303" y="487" width="220" height="57" opacity="0.2"/></g><g transform="translate(-30,-62) scale(1,1)"><rect fill="#ffffff" stroke="none" x="296" y="480" width="220" height="57"/></g><g transform="translate(-30,-62) scale(1,1)"><path fill="none" stroke="#000000" d="M 296 480 L 516 480 L 516 537 L 296 537 L 296 480 Z Z" stroke-miterlimit="10"/></g><g transform="translate(-30,-62) scale(1,1)"><path fill="none" stroke="#000000" d="M 296 505 L 516 505" stroke-miterlimit="10"/></g><g transform="translate(-30,-62) scale(1,1)"><path fill="none" stroke="#000000" d="M 296 515 L 516 515" stroke-miterlimit="10"/></g><g transform="translate(-30,-62) scale(1,1)"><g><path fill="none" stroke="none"/><text fill="#000000" stroke="none" font-family="Arial" font-size="13px" font-style="normal" font-weight="bold" text-decoration="none" x="392.990478515625" y="499.5">Voie</text></g></g><g transform="translate(-30,-62) scale(1,1)"><g><path fill="none" stroke="none"/><text fill="#000000" stroke="none" font-family="Arial" font-size="13px" font-style="normal" font-weight="normal" text-decoration="none" x="301" y="532.5">+AjoutCompétence(c : Compétence)</text></g></g><g transform="translate(-30,-62) scale(1,1)"><path fill="none" stroke="#000000" d="M 295 508 L 170 508" stroke-miterlimit="10"/></g><g transform="translate(-30,-62) scale(1,1)"><path fill="none" stroke="#000000" d="M 180.16267485762415 503.790482243984 L 170 508 L 180.16267485762415 512.209517756016" stroke-miterlimit="10"/></g><g transform="translate(-30,-62) scale(1,1)"><g><path fill="none" stroke="none"/><text fill="#000000" stroke="none" font-family="Arial" font-size="13px" font-style="normal" font-weight="normal" text-decoration="none" x="170.79052734375" y="532.5">+lesCompétences</text></g></g><g transform="translate(-30,-62) scale(1,1)"><g><path fill="none" stroke="none"/><text fill="#000000" stroke="none" font-family="Arial" font-size="13px" font-style="normal" font-weight="normal" text-decoration="none" x="179.658203125" y="501.5">0..5</text></g></g><g transform="translate(-30,-62) scale(1,1)"><rect fill="#C0C0C0" stroke="none" x="591" y="383" width="157" height="145" opacity="0.2"/></g><g transform="translate(-30,-62) scale(1,1)"><rect fill="#ffffff" stroke="none" x="584" y="376" width="157" height="145"/></g><g transform="translate(-30,-62) scale(1,1)"><path fill="none" stroke="#000000" d="M 584 376 L 741 376 L 741 521 L 584 521 L 584 376 Z Z" stroke-miterlimit="10"/></g><g transform="translate(-30,-62) scale(1,1)"><path fill="none" stroke="#000000" d="M 584 401 L 741 401" stroke-miterlimit="10"/></g><g transform="translate(-30,-62) scale(1,1)"><path fill="none" stroke="#000000" d="M 584 499 L 741 499" stroke-miterlimit="10"/></g><g transform="translate(-30,-62) scale(1,1)"><g><path fill="none" stroke="none"/><text fill="#000000" stroke="none" font-family="Arial" font-size="13px" font-style="normal" font-weight="bold" text-decoration="none" x="647.69091796875" y="395.5">Profil</text></g></g><g transform="translate(-30,-62) scale(1,1)"><g><path fill="none" stroke="none"/><text fill="#000000" stroke="none" font-family="Arial" font-size="13px" font-style="normal" font-weight="normal" text-decoration="none" x="589" y="418.5">+DeVie: string</text></g></g><g transform="translate(-30,-62) scale(1,1)"><g><path fill="none" stroke="none"/><text fill="#000000" stroke="none" font-family="Arial" font-size="13px" font-style="normal" font-weight="normal" text-decoration="none" x="589" y="433.5">+Equipement: string</text></g></g><g transform="translate(-30,-62) scale(1,1)"><g><path fill="none" stroke="none"/><text fill="#000000" stroke="none" font-family="Arial" font-size="13px" font-style="normal" font-weight="normal" text-decoration="none" x="589" y="448.5">+ArmesEtArmures: string</text></g></g><g transform="translate(-30,-62) scale(1,1)"><g><path fill="none" stroke="none"/><text fill="#000000" stroke="none" font-family="Arial" font-size="13px" font-style="normal" font-weight="normal" text-decoration="none" x="589" y="463.5">+Divers: string</text></g></g><g transform="translate(-30,-62) scale(1,1)"><g><path fill="none" stroke="none"/><text fill="#000000" stroke="none" font-family="Arial" font-size="13px" font-style="normal" font-weight="normal" text-decoration="none" x="589" y="478.5">+Description: string</text></g></g><g transform="translate(-30,-62) scale(1,1)"><g><path fill="none" stroke="none"/><text fill="#000000" stroke="none" font-family="Arial" font-size="13px" font-style="normal" font-weight="normal" text-decoration="none" x="589" y="493.5">+Image: string</text></g></g><g transform="translate(-30,-62) scale(1,1)"><g><path fill="none" stroke="none"/><text fill="#000000" stroke="none" font-family="Arial" font-size="13px" font-style="normal" font-weight="normal" text-decoration="none" x="589" y="516.5">+AjoutVoie(v: Voie)</text></g></g><g transform="translate(-30,-62) scale(1,1)"><rect fill="#C0C0C0" stroke="none" x="383" y="303" width="84" height="57" opacity="0.2"/></g><g transform="translate(-30,-62) scale(1,1)"><rect fill="#ffffff" stroke="none" x="376" y="296" width="84" height="57"/></g><g transform="translate(-30,-62) scale(1,1)"><path fill="none" stroke="#000000" d="M 376 296 L 460 296 L 460 353 L 376 353 L 376 296 Z Z" stroke-miterlimit="10"/></g><g transform="translate(-30,-62) scale(1,1)"><path fill="none" stroke="#000000" d="M 376 321 L 460 321" stroke-miterlimit="10"/></g><g transform="translate(-30,-62) scale(1,1)"><path fill="none" stroke="#000000" d="M 376 344 L 460 344" stroke-miterlimit="10"/></g><g transform="translate(-30,-62) scale(1,1)"><g><path fill="none" stroke="none"/><text fill="#000000" stroke="none" font-family="Arial" font-size="13px" font-style="italic" font-weight="bold" text-decoration="none" x="386.57275390625" y="315.5">Nommable</text></g></g><g transform="translate(-30,-62) scale(1,1)"><g><path fill="none" stroke="none"/><text fill="#000000" stroke="none" font-family="Arial" font-size="13px" font-style="normal" font-weight="normal" text-decoration="none" x="381" y="338.5">+Nom: string</text></g></g><g transform="translate(-30,-62) scale(1,1)"><path fill="none" stroke="#000000" d="M 153 479 L 375 349" stroke-miterlimit="10"/></g><g transform="translate(-30,-62) scale(1,1)"><path fill="#FFFFFF" stroke="none" d="M 361.7149201190231 366.53586760203393 L 375 349 L 353.2062990321686 352.00576082294396"/></g><g transform="translate(-30,-62) scale(1,1)"><path fill="none" stroke="#000000" d="M 361.7149201190231 366.53586760203393 L 375 349 L 353.2062990321686 352.00576082294396 L 361.7149201190231 366.53586760203393" stroke-miterlimit="10"/></g><g transform="translate(-30,-62) scale(1,1)"><path fill="none" stroke="#000000" d="M 408 479 L 416 354" stroke-miterlimit="10"/></g><g transform="translate(-30,-62) scale(1,1)"><path fill="#FFFFFF" stroke="none" d="M 423.1036796613734 374.8215689915191 L 416 354 L 406.2999874310874 373.7461326887808"/></g><g transform="translate(-30,-62) scale(1,1)"><path fill="none" stroke="#000000" d="M 423.1036796613734 374.8215689915191 L 416 354 L 406.2999874310874 373.7461326887808 L 423.1036796613734 374.8215689915191" stroke-miterlimit="10"/></g><g transform="translate(-30,-62) scale(1,1)"><path fill="none" stroke="#000000" d="M 583 408 L 461 346" stroke-miterlimit="10"/></g><g transform="translate(-30,-62) scale(1,1)"><path fill="#FFFFFF" stroke="none" d="M 482.93399091162087 347.7029511704486 L 461 346 L 475.30550539143746 362.713842032745"/></g><g transform="translate(-30,-62) scale(1,1)"><path fill="none" stroke="#000000" d="M 482.93399091162087 347.7029511704486 L 461 346 L 475.30550539143746 362.713842032745 L 482.93399091162087 347.7029511704486" stroke-miterlimit="10"/></g><g transform="translate(-30,-62) scale(1,1)"><path fill="none" stroke="#000000" d="M 583 467 L 517 482" stroke-miterlimit="10"/></g><g transform="translate(-30,-62) scale(1,1)"><path fill="none" stroke="#000000" d="M 525.9770401857295 475.64289771170877 L 517 482 L 527.8428761270608 483.8525758535662" stroke-miterlimit="10"/></g><g transform="translate(-30,-62) scale(1,1)"><g><path fill="none" stroke="none"/><text fill="#000000" stroke="none" font-family="Arial" font-size="13px" font-style="normal" font-weight="normal" text-decoration="none" x="524.135498046875" y="494.5">+lesVoies</text></g></g><g transform="translate(-30,-62) scale(1,1)"><g><path fill="none" stroke="none"/><text fill="#000000" stroke="none" font-family="Arial" font-size="13px" font-style="normal" font-weight="normal" text-decoration="none" x="523.658203125" y="471.5">0..5</text></g></g><g transform="translate(-30,-62) scale(1,1)"><rect fill="#C0C0C0" stroke="none" x="559" y="751" width="214.54345703125" height="115" opacity="0.2"/></g><g transform="translate(-30,-62) scale(1,1)"><rect fill="#ffffff" stroke="none" x="552" y="744" width="214.54345703125" height="115"/></g><g transform="translate(-30,-62) scale(1,1)"><path fill="none" stroke="#000000" d="M 552 744 L 766.54345703125 744 L 766.54345703125 859 L 552 859 L 552 744 Z Z" stroke-miterlimit="10"/></g><g transform="translate(-30,-62) scale(1,1)"><path fill="none" stroke="#000000" d="M 552 769 L 766.54345703125 769" stroke-miterlimit="10"/></g><g transform="translate(-30,-62) scale(1,1)"><path fill="none" stroke="#000000" d="M 552 792 L 766.54345703125 792" stroke-miterlimit="10"/></g><g transform="translate(-30,-62) scale(1,1)"><g><path fill="none" stroke="none"/><text fill="#000000" stroke="none" font-family="Arial" font-size="13px" font-style="normal" font-weight="bold" text-decoration="none" x="630.3740234375" y="763.5">Utilisateur</text></g></g><g transform="translate(-30,-62) scale(1,1)"><g><path fill="none" stroke="none"/><text fill="#000000" stroke="none" font-family="Arial" font-size="13px" font-style="normal" font-weight="normal" text-decoration="none" x="557" y="786.5">+MotDePasse: string</text></g></g><g transform="translate(-30,-62) scale(1,1)"><g><path fill="none" stroke="none"/><text fill="#000000" stroke="none" font-family="Arial" font-size="13px" font-style="normal" font-weight="normal" text-decoration="none" x="557" y="809.5">+AjoutProfilHybride(p: Profil)</text></g></g><g transform="translate(-30,-62) scale(1,1)"><g><path fill="none" stroke="none"/><text fill="#000000" stroke="none" font-family="Arial" font-size="13px" font-style="normal" font-weight="normal" text-decoration="none" x="557" y="824.5">+AjoutProfilFavori(p: Profil)</text></g></g><g transform="translate(-30,-62) scale(1,1)"><g><path fill="none" stroke="none"/><text fill="#000000" stroke="none" font-family="Arial" font-size="13px" font-style="normal" font-weight="normal" text-decoration="none" x="557" y="839.5">+SupprimerProfilFavori(p: Profil)</text></g></g><g transform="translate(-30,-62) scale(1,1)"><g><path fill="none" stroke="none"/><text fill="#000000" stroke="none" font-family="Arial" font-size="13px" font-style="normal" font-weight="normal" text-decoration="none" x="557" y="854.5">+SupprimerProfilHybride(p: Profil)</text></g></g><g transform="translate(-30,-62) scale(1,1)"><path fill="none" stroke="#000000" d="M 630 743 L 433 354" stroke-miterlimit="10"/></g><g transform="translate(-30,-62) scale(1,1)"><path fill="#FFFFFF" stroke="none" d="M 449.6936876984384 368.3290191927782 L 433 354 L 434.6720731356106 375.9363664135419"/></g><g transform="translate(-30,-62) scale(1,1)"><path fill="none" stroke="#000000" d="M 449.6936876984384 368.3290191927782 L 433 354 L 434.6720731356106 375.9363664135419 L 449.6936876984384 368.3290191927782" stroke-miterlimit="10"/></g><g transform="translate(-30,-62) scale(1,1)"><path fill="none" stroke="#000000" d="M 699 743 L 848 528 L 742 482" stroke-miterlimit="10"/></g><g transform="translate(-30,-62) scale(1,1)"><path fill="none" stroke="#000000" d="M 752.9984591288979 482.1841108089222 L 742 482 L 749.6468990311682 489.9072710341254" stroke-miterlimit="10"/></g><g transform="translate(-30,-62) scale(1,1)"><g><path fill="none" stroke="none"/><text fill="#000000" stroke="none" font-family="Arial" font-size="13px" font-style="normal" font-weight="normal" text-decoration="none" x="840.556396484375" y="563.5">+profilsFavoris</text></g></g><g transform="translate(-30,-62) scale(1,1)"><g><path fill="none" stroke="none"/><text fill="#000000" stroke="none" font-family="Arial" font-size="13px" font-style="normal" font-weight="normal" text-decoration="none" x="753.970458984375" y="487.5">*</text></g></g><g transform="translate(-30,-62) scale(1,1)"><path fill="none" stroke="#000000" d="M 685 743 L 802 488 L 742 471" stroke-miterlimit="10"/></g><g transform="translate(-30,-62) scale(1,1)"><path fill="none" stroke="#000000" d="M 752.9253064604628 469.7202817712604 L 742 471 L 750.6302557222843 477.8204608471847" stroke-miterlimit="10"/></g><g transform="translate(-30,-62) scale(1,1)"><g><path fill="none" stroke="none"/><text fill="#000000" stroke="none" font-family="Arial" font-size="13px" font-style="normal" font-weight="normal" text-decoration="none" x="666.7177734375" y="568.5">+profilsHybrides</text></g></g><g transform="translate(-30,-62) scale(1,1)"><g><path fill="none" stroke="none"/><text fill="#000000" stroke="none" font-family="Arial" font-size="13px" font-style="normal" font-weight="normal" text-decoration="none" x="600.970458984375" y="686.5">*</text></g></g><g transform="translate(-30,-62) scale(1,1)"><rect fill="#C0C0C0" stroke="none" x="1039" y="319" width="187" height="72" opacity="0.2"/></g><g transform="translate(-30,-62) scale(1,1)"><rect fill="#ffffff" stroke="none" x="1032" y="312" width="187" height="72"/></g><g transform="translate(-30,-62) scale(1,1)"><path fill="none" stroke="#000000" d="M 1032 312 L 1219 312 L 1219 384 L 1032 384 L 1032 312 Z Z" stroke-miterlimit="10"/></g><g transform="translate(-30,-62) scale(1,1)"><path fill="none" stroke="#000000" d="M 1032 337 L 1219 337" stroke-miterlimit="10"/></g><g transform="translate(-30,-62) scale(1,1)"><path fill="none" stroke="#000000" d="M 1032 347 L 1219 347" stroke-miterlimit="10"/></g><g transform="translate(-30,-62) scale(1,1)"><g><path fill="none" stroke="none"/><text fill="#000000" stroke="none" font-family="Arial" font-size="13px" font-style="normal" font-weight="bold" text-decoration="none" x="1086.833251953125" y="331.5">StockageApp</text></g></g><g transform="translate(-30,-62) scale(1,1)"><g><path fill="none" stroke="none"/><text fill="#000000" stroke="none" font-family="Arial" font-size="13px" font-style="normal" font-weight="normal" text-decoration="none" x="1037" y="364.5">+AjoutProfil(p: Profil)</text></g></g><g transform="translate(-30,-62) scale(1,1)"><g><path fill="none" stroke="none"/><text fill="#000000" stroke="none" font-family="Arial" font-size="13px" font-style="normal" font-weight="normal" text-decoration="none" x="1037" y="379.5">+AjoutUtilisateur(u: Utilisateur)</text></g></g><g transform="translate(-30,-62) scale(1,1)"><path fill="none" stroke="#000000" d="M 1031 366 L 808 408 L 742 426" stroke-miterlimit="10"/></g><g transform="translate(-30,-62) scale(1,1)"><path fill="none" stroke="#000000" d="M 750.6969836380393 419.2648329196912 L 742 426 L 752.9121784212368 427.3872137914153" stroke-miterlimit="10"/></g><g transform="translate(-30,-62) scale(1,1)"><g><path fill="none" stroke="none"/><text fill="#000000" stroke="none" font-family="Arial" font-size="13px" font-style="normal" font-weight="normal" text-decoration="none" x="760.6708984375" y="396.5">+lesProfils</text></g></g><g transform="translate(-30,-62) scale(1,1)"><g><path fill="none" stroke="none"/><text fill="#000000" stroke="none" font-family="Arial" font-size="13px" font-style="normal" font-weight="normal" text-decoration="none" x="755.970458984375" y="414.5">*</text></g></g><g transform="translate(-30,-62) scale(1,1)"><path fill="none" stroke="#000000" d="M 1087 385 L 719 743" stroke-miterlimit="10"/></g><g transform="translate(-30,-62) scale(1,1)"><path fill="none" stroke="#000000" d="M 723.3490869555845 732.89626590548 L 719 743 L 729.2196877718045 738.930849984723" stroke-miterlimit="10"/></g><g transform="translate(-30,-62) scale(1,1)"><g><path fill="none" stroke="none"/><text fill="#000000" stroke="none" font-family="Arial" font-size="13px" font-style="normal" font-weight="normal" text-decoration="none" x="760.247314453125" y="662.5">+lesUtilisateurs</text></g></g><g transform="translate(-30,-62) scale(1,1)"><g><path fill="none" stroke="none"/><text fill="#000000" stroke="none" font-family="Arial" font-size="13px" font-style="normal" font-weight="normal" text-decoration="none" x="721.970458984375" y="724.5">*</text></g></g><g transform="translate(-30,-62) scale(1,1)"><rect fill="#C0C0C0" stroke="none" x="687" y="135" width="176" height="87" opacity="0.2"/></g><g transform="translate(-30,-62) scale(1,1)"><rect fill="#ffffff" stroke="none" x="680" y="128" width="176" height="87"/></g><g transform="translate(-30,-62) scale(1,1)"><path fill="none" stroke="#000000" d="M 680 128 L 856 128 L 856 215 L 680 215 L 680 128 Z Z" stroke-miterlimit="10"/></g><g transform="translate(-30,-62) scale(1,1)"><path fill="none" stroke="#000000" d="M 680 153 L 856 153" stroke-miterlimit="10"/></g><g transform="translate(-30,-62) scale(1,1)"><path fill="none" stroke="#000000" d="M 680 206 L 856 206" stroke-miterlimit="10"/></g><g transform="translate(-30,-62) scale(1,1)"><g><path fill="none" stroke="none"/><text fill="#000000" stroke="none" font-family="Arial" font-size="13px" font-style="normal" font-weight="bold" text-decoration="none" x="734.3955078125" y="147.5">BoiteDeJeu</text></g></g><g transform="translate(-30,-62) scale(1,1)"><g><path fill="none" stroke="none"/><text fill="#000000" stroke="none" font-family="Arial" font-size="13px" font-style="normal" font-weight="normal" text-decoration="none" x="685" y="170.5">+NomMagasin: string</text></g></g><g transform="translate(-30,-62) scale(1,1)"><g><path fill="none" stroke="none"/><text fill="#000000" stroke="none" font-family="Arial" font-size="13px" font-style="normal" font-weight="normal" text-decoration="none" x="685" y="185.5">+Description: string</text></g></g><g transform="translate(-30,-62) scale(1,1)"><g><path fill="none" stroke="none"/><text fill="#000000" stroke="none" font-family="Arial" font-size="13px" font-style="normal" font-weight="normal" text-decoration="none" x="685" y="200.5">+Image: string</text></g></g><g transform="translate(-30,-62) scale(1,1)"><path fill="none" stroke="#000000" d="M 679 210 L 461 305" stroke-miterlimit="10"/></g><g transform="translate(-30,-62) scale(1,1)"><path fill="#FFFFFF" stroke="none" d="M 476.2696077684049 289.1620999308915 L 461 305 L 482.99632973771946 304.5981566604764"/></g><g transform="translate(-30,-62) scale(1,1)"><path fill="none" stroke="#000000" d="M 476.2696077684049 289.1620999308915 L 461 305 L 482.99632973771946 304.5981566604764 L 476.2696077684049 289.1620999308915" stroke-miterlimit="10"/></g><g transform="translate(-30,-62) scale(1,1)"><path fill="none" stroke="#000000" d="M 1050 311 L 857 215" stroke-miterlimit="10"/></g><g transform="translate(-30,-62) scale(1,1)"><path fill="none" stroke="#000000" d="M 867.9739204784709 215.75701342933826 L 857 215 L 864.2244442571942 223.29502291586303" stroke-miterlimit="10"/></g><g transform="translate(-30,-62) scale(1,1)"><g><path fill="none" stroke="none"/><text fill="#000000" stroke="none" font-family="Arial" font-size="13px" font-style="normal" font-weight="normal" text-decoration="none" x="812.9677734375" y="251.5">+lesBoîtes</text></g></g><g transform="translate(-30,-62) scale(1,1)"><g><path fill="none" stroke="none"/><text fill="#000000" stroke="none" font-family="Arial" font-size="13px" font-style="normal" font-weight="normal" text-decoration="none" x="877.970458984375" y="219.5">*</text></g></g><g transform="translate(-30,-62) scale(1,1)"><path fill="none" stroke="#000000" d="M 1302 194 L 1167 311" stroke-miterlimit="10" stroke-dasharray="3"/></g><g transform="translate(-30,-62) scale(1,1)"><path fill="none" stroke="#000000" d="M 1171.922880711422 301.16306727169956 L 1167 311 L 1177.436764172276 307.5252404957619" stroke-miterlimit="10"/></g><g transform="translate(-30,-62) scale(1,1)"><path fill="none" stroke="#000000" d="M 1551 194 L 1457 181" stroke-miterlimit="10"/></g><g transform="translate(-30,-62) scale(1,1)"><path fill="#FFFFFF" stroke="none" d="M 1478.287077080347 175.44479078923513 L 1457 181 L 1475.9803626589958 192.12411045131228"/></g><g transform="translate(-30,-62) scale(1,1)"><path fill="none" stroke="#000000" d="M 1478.287077080347 175.44479078923513 L 1457 181 L 1475.9803626589958 192.12411045131228 L 1478.287077080347 175.44479078923513" stroke-miterlimit="10"/></g><g transform="translate(-30,-62) scale(1,1)"><path fill="none" stroke="#000000" d="M 1511 140 L 1457 147" stroke-miterlimit="10"/></g><g transform="translate(-30,-62) scale(1,1)"><path fill="#FFFFFF" stroke="none" d="M 1476.0743993290507 136.0379157895995 L 1457 147 L 1478.2390011937441 152.7362730315197"/></g><g transform="translate(-30,-62) scale(1,1)"><path fill="none" stroke="#000000" d="M 1476.0743993290507 136.0379157895995 L 1457 147 L 1478.2390011937441 152.7362730315197 L 1476.0743993290507 136.0379157895995" stroke-miterlimit="10"/></g><g transform="translate(-30,-62) scale(1,1)"><path fill="none" stroke="#000000" d="M 1471 290 L 1220 332" stroke-miterlimit="10" stroke-dasharray="3"/></g><g transform="translate(-30,-62) scale(1,1)"><path fill="none" stroke="#000000" d="M 1229.3285967143272 326.17099636803664 L 1220 332 L 1230.7180419913777 334.4745859999331" stroke-miterlimit="10"/></g><g transform="translate(-30,-62) scale(1,1)"><rect fill="#C0C0C0" stroke="none" x="1479" y="247" width="254" height="57" opacity="0.2"/></g><g transform="translate(-30,-62) scale(1,1)"><rect fill="#ffffff" stroke="none" x="1472" y="240" width="254" height="57"/></g><g transform="translate(-30,-62) scale(1,1)"><path fill="none" stroke="#000000" d="M 1472 240 L 1726 240 L 1726 297 L 1472 297 L 1472 240 Z Z" stroke-miterlimit="10"/></g><g transform="translate(-30,-62) scale(1,1)"><path fill="none" stroke="#000000" d="M 1472 265 L 1726 265" stroke-miterlimit="10"/></g><g transform="translate(-30,-62) scale(1,1)"><path fill="none" stroke="#000000" d="M 1472 275 L 1726 275" stroke-miterlimit="10"/></g><g transform="translate(-30,-62) scale(1,1)"><g><path fill="none" stroke="none"/><text fill="#000000" stroke="none" font-family="Arial" font-size="13px" font-style="normal" font-weight="bold" text-decoration="none" x="1574.7900390625" y="259.5">Sauveur</text></g></g><g transform="translate(-30,-62) scale(1,1)"><g><path fill="none" stroke="none"/><text fill="#000000" stroke="none" font-family="Arial" font-size="13px" font-style="normal" font-weight="normal" text-decoration="none" x="1477" y="292.5">+Sauver(chemin: string, sa: StockageApp)</text></g></g><g transform="translate(-30,-62) scale(1,1)"><rect fill="#C0C0C0" stroke="none" x="1223" y="143" width="240" height="57" opacity="0.2"/></g><g transform="translate(-30,-62) scale(1,1)"><rect fill="#ffffff" stroke="none" x="1216" y="136" width="240" height="57"/></g><g transform="translate(-30,-62) scale(1,1)"><path fill="none" stroke="#000000" d="M 1216 136 L 1456 136 L 1456 193 L 1216 193 L 1216 136 Z Z" stroke-miterlimit="10"/></g><g transform="translate(-30,-62) scale(1,1)"><path fill="none" stroke="#000000" d="M 1216 161 L 1456 161" stroke-miterlimit="10"/></g><g transform="translate(-30,-62) scale(1,1)"><path fill="none" stroke="#000000" d="M 1216 171 L 1456 171" stroke-miterlimit="10"/></g><g transform="translate(-30,-62) scale(1,1)"><g><path fill="none" stroke="none"/><text fill="#000000" stroke="none" font-family="Arial" font-size="13px" font-style="italic" font-weight="bold" text-decoration="none" x="1308.90185546875" y="155.5">Chargeur</text></g></g><g transform="translate(-30,-62) scale(1,1)"><g><path fill="none" stroke="none"/><text fill="#000000" stroke="none" font-family="Arial" font-size="13px" font-style="normal" font-weight="normal" text-decoration="none" x="1221" y="188.5">+Charger(chemin: String): StockageApp</text></g></g><g transform="translate(-30,-62) scale(1,1)"><rect fill="#C0C0C0" stroke="none" x="1559" y="183" width="50.919921875" height="44" opacity="0.2"/></g><g transform="translate(-30,-62) scale(1,1)"><rect fill="#ffffff" stroke="none" x="1552" y="176" width="50.919921875" height="44"/></g><g transform="translate(-30,-62) scale(1,1)"><path fill="none" stroke="#000000" d="M 1552 176 L 1602.919921875 176 L 1602.919921875 220 L 1552 220 L 1552 176 Z Z" stroke-miterlimit="10"/></g><g transform="translate(-30,-62) scale(1,1)"><path fill="none" stroke="#000000" d="M 1552 201 L 1602.919921875 201" stroke-miterlimit="10"/></g><g transform="translate(-30,-62) scale(1,1)"><path fill="none" stroke="#000000" d="M 1552 211 L 1602.919921875 211" stroke-miterlimit="10"/></g><g transform="translate(-30,-62) scale(1,1)"><g><path fill="none" stroke="none"/><text fill="#000000" stroke="none" font-family="Arial" font-size="13px" font-style="normal" font-weight="bold" text-decoration="none" x="1564.088623046875" y="195.5">Stub</text></g></g><g transform="translate(-30,-62) scale(1,1)"><rect fill="#C0C0C0" stroke="none" x="1519" y="119" width="87" height="44" opacity="0.2"/></g><g transform="translate(-30,-62) scale(1,1)"><rect fill="#ffffff" stroke="none" x="1512" y="112" width="87" height="44"/></g><g transform="translate(-30,-62) scale(1,1)"><path fill="none" stroke="#000000" d="M 1512 112 L 1599 112 L 1599 156 L 1512 156 L 1512 112 Z Z" stroke-miterlimit="10"/></g><g transform="translate(-30,-62) scale(1,1)"><path fill="none" stroke="#000000" d="M 1512 137 L 1599 137" stroke-miterlimit="10"/></g><g transform="translate(-30,-62) scale(1,1)"><path fill="none" stroke="#000000" d="M 1512 147 L 1599 147" stroke-miterlimit="10"/></g><g transform="translate(-30,-62) scale(1,1)"><g><path fill="none" stroke="none"/><text fill="#000000" stroke="none" font-family="Arial" font-size="13px" font-style="normal" font-weight="bold" text-decoration="none" x="1519.7373046875" y="131.5">ChargeurFic</text></g></g><g transform="translate(-30,-62) scale(1,1)"><rect fill="#C0C0C0" stroke="none" x="1167" y="575" width="92" height="44" opacity="0.2"/></g><g transform="translate(-30,-62) scale(1,1)"><rect fill="#ffffff" stroke="none" x="1160" y="568" width="92" height="44"/></g><g transform="translate(-30,-62) scale(1,1)"><path fill="none" stroke="#000000" d="M 1160 568 L 1252 568 L 1252 612 L 1160 612 L 1160 568 Z Z" stroke-miterlimit="10"/></g><g transform="translate(-30,-62) scale(1,1)"><path fill="none" stroke="#000000" d="M 1160 593 L 1252 593" stroke-miterlimit="10"/></g><g transform="translate(-30,-62) scale(1,1)"><path fill="none" stroke="#000000" d="M 1160 603 L 1252 603" stroke-miterlimit="10"/></g><g transform="translate(-30,-62) scale(1,1)"><g><path fill="none" stroke="none"/><text fill="#000000" stroke="none" font-family="Arial" font-size="13px" font-style="normal" font-weight="bold" text-decoration="none" x="1168.793212890625" y="587.5">MainWindow</text></g></g><g transform="translate(-30,-62) scale(1,1)"><path fill="none" stroke="#000000" d="M 1198 567 L 1137 385" stroke-miterlimit="10"/></g><g transform="translate(-30,-62) scale(1,1)"><path fill="none" stroke="#000000" d="M 1144.2208996252848 393.29810873642685 L 1137 385 L 1136.2382981327555 395.97359604985695" stroke-miterlimit="10"/></g><g transform="translate(-30,-62) scale(1,1)"><g><path fill="none" stroke="none"/><text fill="#000000" stroke="none" font-family="Arial" font-size="13px" font-style="normal" font-weight="normal" text-decoration="none" x="1121.470458984375" y="420.5">-sa</text></g></g><g transform="translate(-30,-62) scale(1,1)"><g><path fill="none" stroke="none"/><text fill="#000000" stroke="none" font-family="Arial" font-size="13px" font-style="normal" font-weight="normal" text-decoration="none" x="1147.885009765625" y="413.5">1</text></g></g><g transform="translate(-30,-62) scale(1,1)"><path fill="none" stroke="#000000" d="M 1234 567 L 1562 298" stroke-miterlimit="10" stroke-dasharray="3"/></g><g transform="translate(-30,-62) scale(1,1)"><path fill="none" stroke="#000000" d="M 1556.8114073762174 307.699407537805 L 1562 298 L 1551.472594127435 301.1896278143826" stroke-miterlimit="10"/></g><g transform="translate(-30,-62) scale(1,1)"><path fill="none" stroke="#000000" d="M 1213 567 L 1327 194" stroke-miterlimit="10" stroke-dasharray="3"/></g><g transform="translate(-30,-62) scale(1,1)"><path fill="none" stroke="#000000" d="M 1328.0553111962506 204.94926108370186 L 1327 194 L 1320.0039209418635 202.4885144643985" stroke-miterlimit="10"/></g><g transform="translate(-30,-62) scale(1,1)"><path fill="none" stroke="#000000" d="M 1159 608 L 768 759" stroke-miterlimit="10"/></g><g transform="translate(-30,-62) scale(1,1)"><path fill="none" stroke="#000000" d="M 775.9637684641889 751.4119573110854 L 768 759 L 778.996791126092 759.2656782435631" stroke-miterlimit="10"/></g><g transform="translate(-30,-62) scale(1,1)"><g><path fill="none" stroke="none"/><text fill="#000000" stroke="none" font-family="Arial" font-size="13px" font-style="normal" font-weight="normal" text-decoration="none" x="800.240966796875" y="691.5">+UtilisateurActuel</text></g></g><g transform="translate(-30,-62) scale(1,1)"><g><path fill="none" stroke="none"/><text fill="#000000" stroke="none" font-family="Arial" font-size="13px" font-style="normal" font-weight="normal" text-decoration="none" x="777.885009765625" y="743.5">1</text></g></g><g transform="translate(-30,-62) scale(1,1)"><path fill="none" stroke="#000000" d="M 1159 578 L 742 469" stroke-miterlimit="10"/></g><g transform="translate(-30,-62) scale(1,1)"><path fill="none" stroke="#000000" d="M 752.8968888162227 467.4973975486242 L 742 469 L 750.7677643585823 475.6427635929915" stroke-miterlimit="10"/></g><g transform="translate(-30,-62) scale(1,1)"><g><path fill="none" stroke="none"/><text fill="#000000" stroke="none" font-family="Arial" font-size="13px" font-style="normal" font-weight="normal" text-decoration="none" x="775.14501953125" y="474.5">+Profils</text></g></g><g transform="translate(-30,-62) scale(1,1)"><g><path fill="none" stroke="none"/><text fill="#000000" stroke="none" font-family="Arial" font-size="13px" font-style="normal" font-weight="normal" text-decoration="none" x="762.970458984375" y="468.5">*</text></g></g><g transform="translate(-30,-62) scale(1,1)"><rect fill="#C0C0C0" stroke="none" x="991" y="1007" width="79.052734375" height="44" opacity="0.2"/></g><g transform="translate(-30,-62) scale(1,1)"><rect fill="#ffffff" stroke="none" x="984" y="1000" width="79.052734375" height="44"/></g><g transform="translate(-30,-62) scale(1,1)"><path fill="none" stroke="#000000" d="M 984 1000 L 1063.052734375 1000 L 1063.052734375 1044 L 984 1044 L 984 1000 Z Z" stroke-miterlimit="10"/></g><g transform="translate(-30,-62) scale(1,1)"><path fill="none" stroke="#000000" d="M 984 1025 L 1063.052734375 1025" stroke-miterlimit="10"/></g><g transform="translate(-30,-62) scale(1,1)"><path fill="none" stroke="#000000" d="M 984 1035 L 1063.052734375 1035" stroke-miterlimit="10"/></g><g transform="translate(-30,-62) scale(1,1)"><g><path fill="none" stroke="none"/><text fill="#000000" stroke="none" font-family="Arial" font-size="13px" font-style="normal" font-weight="bold" text-decoration="none" x="992.4609375" y="1019.5">AffichProfil</text></g></g><g transform="translate(-30,-62) scale(1,1)"><path fill="none" stroke="#000000" d="M 1033 999 L 1196 613" stroke-miterlimit="10" stroke-dasharray="3"/></g><g transform="translate(-30,-62) scale(1,1)"><path fill="none" stroke="#000000" d="M 1195.92448260738 623.9997407752825 L 1196 613 L 1188.1686098460846 620.7245924330773" stroke-miterlimit="10"/></g><g transform="translate(-30,-62) scale(1,1)"><path fill="none" stroke="#000000" d="M 1009 999 L 709 522" stroke-miterlimit="10"/></g><g transform="translate(-30,-62) scale(1,1)"><path fill="none" stroke="#000000" d="M 717.9738567975903 528.3615952540493 L 709 522 L 710.8471478516707 532.8438021382755" stroke-miterlimit="10"/></g><g transform="translate(-30,-62) scale(1,1)"><g><path fill="none" stroke="none"/><text fill="#000000" stroke="none" font-family="Arial" font-size="13px" font-style="normal" font-weight="normal" text-decoration="none" x="702.589111328125" y="548.5">+p</text></g></g><g transform="translate(-30,-62) scale(1,1)"><g><path fill="none" stroke="none"/><text fill="#000000" stroke="none" font-family="Arial" font-size="13px" font-style="normal" font-weight="normal" text-decoration="none" x="723.885009765625" y="536.5">1</text></g></g><g transform="translate(-30,-62) scale(1,1)"><rect fill="#C0C0C0" stroke="none" x="391" y="919" width="82.658203125" height="44" opacity="0.2"/></g><g transform="translate(-30,-62) scale(1,1)"><rect fill="#ffffff" stroke="none" x="384" y="912" width="82.658203125" height="44"/></g><g transform="translate(-30,-62) scale(1,1)"><path fill="none" stroke="#000000" d="M 384 912 L 466.658203125 912 L 466.658203125 956 L 384 956 L 384 912 Z Z" stroke-miterlimit="10"/></g><g transform="translate(-30,-62) scale(1,1)"><path fill="none" stroke="#000000" d="M 384 937 L 466.658203125 937" stroke-miterlimit="10"/></g><g transform="translate(-30,-62) scale(1,1)"><path fill="none" stroke="#000000" d="M 384 947 L 466.658203125 947" stroke-miterlimit="10"/></g><g transform="translate(-30,-62) scale(1,1)"><g><path fill="none" stroke="none"/><text fill="#000000" stroke="none" font-family="Arial" font-size="13px" font-style="normal" font-weight="bold" text-decoration="none" x="391.734130859375" y="931.5">AffichComp</text></g></g><g transform="translate(-30,-62) scale(1,1)"><path fill="none" stroke="#000000" d="M 408 911 L 127 538" stroke-miterlimit="10"/></g><g transform="translate(-30,-62) scale(1,1)"><path fill="none" stroke="#000000" d="M 136.47719831071674 543.5841482948922 L 127 538 L 129.7528020656879 548.6499803186271" stroke-miterlimit="10"/></g><g transform="translate(-30,-62) scale(1,1)"><g><path fill="none" stroke="none"/><text fill="#000000" stroke="none" font-family="Arial" font-size="13px" font-style="normal" font-weight="normal" text-decoration="none" x="115.4541015625" y="556.5">+c</text></g></g><g transform="translate(-30,-62) scale(1,1)"><g><path fill="none" stroke="none"/><text fill="#000000" stroke="none" font-family="Arial" font-size="13px" font-style="normal" font-weight="normal" text-decoration="none" x="138.885009765625" y="554.5">1</text></g></g><g transform="translate(-30,-62) scale(1,1)"><path fill="none" stroke="#000000" d="M 983 1016 L 468 940" stroke-miterlimit="10" stroke-dasharray="3"/></g><g transform="translate(-30,-62) scale(1,1)"><path fill="none" stroke="#000000" d="M 478.6683447129311 937.3192499023455 L 468 940 L 477.4392354632672 945.6480823178313" stroke-miterlimit="10"/></g><g transform="translate(-30,-62) scale(1,1)"><rect fill="#C0C0C0" stroke="none" x="935" y="735" width="107.236328125" height="44" opacity="0.2"/></g><g transform="translate(-30,-62) scale(1,1)"><rect fill="#ffffff" stroke="none" x="928" y="728" width="107.236328125" height="44"/></g><g transform="translate(-30,-62) scale(1,1)"><path fill="none" stroke="#000000" d="M 928 728 L 1035.236328125 728 L 1035.236328125 772 L 928 772 L 928 728 Z Z" stroke-miterlimit="10"/></g><g transform="translate(-30,-62) scale(1,1)"><path fill="none" stroke="#000000" d="M 928 753 L 1035.236328125 753" stroke-miterlimit="10"/></g><g transform="translate(-30,-62) scale(1,1)"><path fill="none" stroke="#000000" d="M 928 763 L 1035.236328125 763" stroke-miterlimit="10"/></g><g transform="translate(-30,-62) scale(1,1)"><g><path fill="none" stroke="none"/><text fill="#000000" stroke="none" font-family="Arial" font-size="13px" font-style="normal" font-weight="bold" text-decoration="none" x="935.359619140625" y="747.5">PageConnexion</text></g></g><g transform="translate(-30,-62) scale(1,1)"><path fill="none" stroke="#000000" d="M 1174 613 L 1013 727" stroke-miterlimit="10" stroke-dasharray="3"/></g><g transform="translate(-30,-62) scale(1,1)"><path fill="none" stroke="#000000" d="M 1018.861421624533 717.6917382643451 L 1013 727 L 1023.7265859724416 724.5627159837599" stroke-miterlimit="10"/></g><g transform="translate(-30,-62) scale(1,1)"><path fill="none" stroke="#000000" d="M 927 759 L 768 784" stroke-miterlimit="10" stroke-dasharray="3"/></g><g transform="translate(-30,-62) scale(1,1)"><path fill="none" stroke="#000000" d="M 777.3854946224487 778.2630591172658 L 768 784 L 778.693176693771 786.5799170908757" stroke-miterlimit="10"/></g><g transform="translate(-30,-62) scale(1,1)"><rect fill="#C0C0C0" stroke="none" x="967" y="815" width="106.51904296875" height="44" opacity="0.2"/></g><g transform="translate(-30,-62) scale(1,1)"><rect fill="#ffffff" stroke="none" x="960" y="808" width="106.51904296875" height="44"/></g><g transform="translate(-30,-62) scale(1,1)"><path fill="none" stroke="#000000" d="M 960 808 L 1066.51904296875 808 L 1066.51904296875 852 L 960 852 L 960 808 Z Z" stroke-miterlimit="10"/></g><g transform="translate(-30,-62) scale(1,1)"><path fill="none" stroke="#000000" d="M 960 833 L 1066.51904296875 833" stroke-miterlimit="10"/></g><g transform="translate(-30,-62) scale(1,1)"><path fill="none" stroke="#000000" d="M 960 843 L 1066.51904296875 843" stroke-miterlimit="10"/></g><g transform="translate(-30,-62) scale(1,1)"><g><path fill="none" stroke="none"/><text fill="#000000" stroke="none" font-family="Arial" font-size="13px" font-style="normal" font-weight="bold" text-decoration="none" x="968.45458984375" y="827.5">PageInscription</text></g></g><g transform="translate(-30,-62) scale(1,1)"><path fill="none" stroke="#000000" d="M 1188 613 L 1031 807" stroke-miterlimit="10" stroke-dasharray="3"/></g><g transform="translate(-30,-62) scale(1,1)"><path fill="none" stroke="#000000" d="M 1034.120946684679 796.4520290201674 L 1031 807 L 1040.6653843720567 801.7483007568596" stroke-miterlimit="10"/></g><g transform="translate(-30,-62) scale(1,1)"><path fill="none" stroke="#000000" d="M 959 826 L 768 810" stroke-miterlimit="10" stroke-dasharray="3"/></g><g transform="translate(-30,-62) scale(1,1)"><path fill="none" stroke="#000000" d="M 778.4786028722082 806.6535269541573 L 768 810 L 777.7758049320726 815.0431773645258" stroke-miterlimit="10"/></g><g transform="translate(-30,-62) scale(1,1)"><path fill="#ffff91" stroke="none" d="M 152 192 L 381 192 L 391 202 L 391 267 L 152 267 L 152 192"/></g><g transform="translate(-30,-62) scale(1,1)"><path fill="none" stroke="#000000" d="M 152 192 L 381 192 L 391 202 L 391 267 L 152 267 L 152 192 L 152 192" stroke-miterlimit="10"/></g><g transform="translate(-30,-62) scale(1,1)"><path fill="none" stroke="#000000" d="M 381 192 L 381 202 L 391 202 L 381 192" stroke-miterlimit="10"/></g><g transform="translate(-30,-62) scale(1,1)"><g><path fill="none" stroke="none"/><text fill="#000000" stroke="none" font-family="Arial" font-size="13px" font-style="normal" font-weight="normal" text-decoration="none" x="157" y="210">Nous avons décidé d'utiliser une</text><text fill="#000000" stroke="none" font-family="Arial" font-size="13px" font-style="normal" font-weight="normal" text-decoration="none" x="157" y="223">interface appelée "Nommable" qui</text><text fill="#000000" stroke="none" font-family="Arial" font-size="13px" font-style="normal" font-weight="normal" text-decoration="none" x="157" y="236">permet a toutes les classes qui</text><text fill="#000000" stroke="none" font-family="Arial" font-size="13px" font-style="normal" font-weight="normal" text-decoration="none" x="157" y="249">dépendent de "Nommable" d'avoir un</text><text fill="#000000" stroke="none" font-family="Arial" font-size="13px" font-style="normal" font-weight="normal" text-decoration="none" x="157" y="262">nom.</text></g></g><g transform="translate(-30,-62) scale(1,1)"><path fill="#ffff91" stroke="none" d="M 968 192 L 1197 192 L 1207 202 L 1207 267 L 968 267 L 968 192"/></g><g transform="translate(-30,-62) scale(1,1)"><path fill="none" stroke="#000000" d="M 968 192 L 1197 192 L 1207 202 L 1207 267 L 968 267 L 968 192 L 968 192" stroke-miterlimit="10"/></g><g transform="translate(-30,-62) scale(1,1)"><path fill="none" stroke="#000000" d="M 1197 192 L 1197 202 L 1207 202 L 1197 192" stroke-miterlimit="10"/></g><g transform="translate(-30,-62) scale(1,1)"><g><path fill="none" stroke="none"/><text fill="#000000" stroke="none" font-family="Arial" font-size="13px" font-style="normal" font-weight="normal" text-decoration="none" x="973" y="210">La classe StockageApp est le stockage</text><text fill="#000000" stroke="none" font-family="Arial" font-size="13px" font-style="normal" font-weight="normal" text-decoration="none" x="973" y="223">entier de toute l'application. C'est ici</text><text fill="#000000" stroke="none" font-family="Arial" font-size="13px" font-style="normal" font-weight="normal" text-decoration="none" x="973" y="236">que l'on peut ajouter un utilisateur et un</text><text fill="#000000" stroke="none" font-family="Arial" font-size="13px" font-style="normal" font-weight="normal" text-decoration="none" x="973" y="249">nouveau profil hybride.</text></g></g><g transform="translate(-30,-62) scale(1,1)"><path fill="#ffff91" stroke="none" d="M 584 256 L 813 256 L 823 266 L 823 370 L 584 370 L 584 256"/></g><g transform="translate(-30,-62) scale(1,1)"><path fill="none" stroke="#000000" d="M 584 256 L 813 256 L 823 266 L 823 370 L 584 370 L 584 256 L 584 256" stroke-miterlimit="10"/></g><g transform="translate(-30,-62) scale(1,1)"><path fill="none" stroke="#000000" d="M 813 256 L 813 266 L 823 266 L 813 256" stroke-miterlimit="10"/></g><g transform="translate(-30,-62) scale(1,1)"><g><path fill="none" stroke="none"/><text fill="#000000" stroke="none" font-family="Arial" font-size="13px" font-style="normal" font-weight="normal" text-decoration="none" x="589" y="274">La classe profil est l'une des classes</text><text fill="#000000" stroke="none" font-family="Arial" font-size="13px" font-style="normal" font-weight="normal" text-decoration="none" x="589" y="287">les plus importantes de l'application.</text><text fill="#000000" stroke="none" font-family="Arial" font-size="13px" font-style="normal" font-weight="normal" text-decoration="none" x="589" y="300">C'est elle qui permet de créer un profil</text><text fill="#000000" stroke="none" font-family="Arial" font-size="13px" font-style="normal" font-weight="normal" text-decoration="none" x="589" y="313">et d'ajouter une voie. Ensuite la classe</text><text fill="#000000" stroke="none" font-family="Arial" font-size="13px" font-style="normal" font-weight="normal" text-decoration="none" x="589" y="326">voie permet d'ajouter 5 compétences</text><text fill="#000000" stroke="none" font-family="Arial" font-size="13px" font-style="normal" font-weight="normal" text-decoration="none" x="589" y="339">dans la liste LesCompétences de la</text><text fill="#000000" stroke="none" font-family="Arial" font-size="13px" font-style="normal" font-weight="normal" text-decoration="none" x="589" y="352">voie en question.</text></g></g><g transform="translate(-30,-62) scale(1,1)"><path fill="#ffff91" stroke="none" d="M 1616 72 L 1805 72 L 1815 82 L 1815 121 L 1616 121 L 1616 72"/></g><g transform="translate(-30,-62) scale(1,1)"><path fill="none" stroke="#000000" d="M 1616 72 L 1805 72 L 1815 82 L 1815 121 L 1616 121 L 1616 72 L 1616 72" stroke-miterlimit="10"/></g><g transform="translate(-30,-62) scale(1,1)"><path fill="none" stroke="#000000" d="M 1805 72 L 1805 82 L 1815 82 L 1805 72" stroke-miterlimit="10"/></g><g transform="translate(-30,-62) scale(1,1)"><g><path fill="none" stroke="none"/><text fill="#000000" stroke="none" font-family="Arial" font-size="13px" font-style="normal" font-weight="normal" text-decoration="none" x="1621" y="90">Le stub est la classe où toutes</text><text fill="#000000" stroke="none" font-family="Arial" font-size="13px" font-style="normal" font-weight="normal" text-decoration="none" x="1621" y="103">les données brutes de</text><text fill="#000000" stroke="none" font-family="Arial" font-size="13px" font-style="normal" font-weight="normal" text-decoration="none" x="1621" y="116">l’application sont stockées.</text></g></g></g></svg>