<svg version="1.1" xmlns="http://www.w3.org/2000/svg" xmlns:xlink="http://www.w3.org/1999/xlink" width="387" height="267"><defs/><g><g transform="translate(-54,-198) scale(1,1)"><rect fill="#C0C0C0" stroke="none" x="223" y="335" width="33.36796874999999" height="15" opacity="0.2"/></g><g transform="translate(-54,-198) scale(1,1)"><rect fill="#C0C0C0" stroke="none" x="223" y="349" width="83.419921875" height="25" opacity="0.2"/></g><g transform="translate(-54,-198) scale(1,1)"><rect fill="#ffffff" stroke="none" x="216" y="343" width="83.419921875" height="24"/></g><g transform="translate(-54,-198) scale(1,1)"><path fill="none" stroke="#000000" d="M 216 343 L 299.419921875 343 L 299.419921875 367 L 216 367 L 216 343 Z Z" stroke-miterlimit="10"/></g><g transform="translate(-54,-198) scale(1,1)"><rect fill="#ffffff" stroke="none" x="216" y="328" width="33.36796874999999" height="15"/></g><g transform="translate(-54,-198) scale(1,1)"><path fill="none" stroke="#000000" d="M 216 328 L 249.36796875 328 L 249.36796875 343 L 216 343 L 216 328 Z Z" stroke-miterlimit="10"/></g><g transform="translate(-54,-198) scale(1,1)"><rect fill="#ffffff" stroke="none" x="216" y="342" width="83.419921875" height="25"/></g><g transform="translate(-54,-198) scale(1,1)"><path fill="none" stroke="#000000" d="M 216 342 L 299.419921875 342 L 299.419921875 367 L 216 367 L 216 342 Z Z" stroke-miterlimit="10"/></g><g transform="translate(-54,-198) scale(1,1)"><g><path fill="none" stroke="none"/><text fill="#000000" stroke="none" font-family="Arial" font-size="13px" font-style="normal" font-weight="bold" text-decoration="none" x="223.0263671875" y="362.5">ClassesApp</text></g></g><g transform="translate(-54,-198) scale(1,1)"><rect fill="#C0C0C0" stroke="none" x="231" y="423" width="28.399999999999977" height="15" opacity="0.2"/></g><g transform="translate(-54,-198) scale(1,1)"><rect fill="#C0C0C0" stroke="none" x="231" y="437" width="71" height="25" opacity="0.2"/></g><g transform="translate(-54,-198) scale(1,1)"><rect fill="#ffffff" stroke="none" x="224" y="431" width="71" height="24"/></g><g transform="translate(-54,-198) scale(1,1)"><path fill="none" stroke="#000000" d="M 224 431 L 295 431 L 295 455 L 224 455 L 224 431 Z Z" stroke-miterlimit="10"/></g><g transform="translate(-54,-198) scale(1,1)"><rect fill="#ffffff" stroke="none" x="224" y="416" width="28.400000000000006" height="15"/></g><g transform="translate(-54,-198) scale(1,1)"><path fill="none" stroke="#000000" d="M 224 416 L 252.4 416 L 252.4 431 L 224 431 L 224 416 Z Z" stroke-miterlimit="10"/></g><g transform="translate(-54,-198) scale(1,1)"><rect fill="#ffffff" stroke="none" x="224" y="430" width="71" height="25"/></g><g transform="translate(-54,-198) scale(1,1)"><path fill="none" stroke="#000000" d="M 224 430 L 295 430 L 295 455 L 224 455 L 224 430 Z Z" stroke-miterlimit="10"/></g><g transform="translate(-54,-198) scale(1,1)"><g><path fill="none" stroke="none"/><text fill="#000000" stroke="none" font-family="Arial" font-size="13px" font-style="normal" font-weight="bold" text-decoration="none" x="245.77001953125" y="450.5">Data</text></g></g><g transform="translate(-54,-198) scale(1,1)"><rect fill="#C0C0C0" stroke="none" x="367" y="335" width="28.399999999999977" height="15" opacity="0.2"/></g><g transform="translate(-54,-198) scale(1,1)"><rect fill="#C0C0C0" stroke="none" x="367" y="349" width="71" height="25" opacity="0.2"/></g><g transform="translate(-54,-198) scale(1,1)"><rect fill="#ffffff" stroke="none" x="360" y="343" width="71" height="24"/></g><g transform="translate(-54,-198) scale(1,1)"><path fill="none" stroke="#000000" d="M 360 343 L 431 343 L 431 367 L 360 367 L 360 343 Z Z" stroke-miterlimit="10"/></g><g transform="translate(-54,-198) scale(1,1)"><rect fill="#ffffff" stroke="none" x="360" y="328" width="28.399999999999977" height="15"/></g><g transform="translate(-54,-198) scale(1,1)"><path fill="none" stroke="#000000" d="M 360 328 L 388.4 328 L 388.4 343 L 360 343 L 360 328 Z Z" stroke-miterlimit="10"/></g><g transform="translate(-54,-198) scale(1,1)"><rect fill="#ffffff" stroke="none" x="360" y="342" width="71" height="25"/></g><g transform="translate(-54,-198) scale(1,1)"><path fill="none" stroke="#000000" d="M 360 342 L 431 342 L 431 367 L 360 367 L 360 342 Z Z" stroke-miterlimit="10"/></g><g transform="translate(-54,-198) scale(1,1)"><g><path fill="none" stroke="none"/><text fill="#000000" stroke="none" font-family="Arial" font-size="13px" font-style="normal" font-weight="bold" text-decoration="none" x="368.763671875" y="362.5">WpfApp1</text></g></g><g transform="translate(-54,-198) scale(1,1)"><rect fill="#C0C0C0" stroke="none" x="367" y="423" width="28.399999999999977" height="15" opacity="0.2"/></g><g transform="translate(-54,-198) scale(1,1)"><rect fill="#C0C0C0" stroke="none" x="367" y="437" width="71" height="25" opacity="0.2"/></g><g transform="translate(-54,-198) scale(1,1)"><rect fill="#ffffff" stroke="none" x="360" y="431" width="71" height="24"/></g><g transform="translate(-54,-198) scale(1,1)"><path fill="none" stroke="#000000" d="M 360 431 L 431 431 L 431 455 L 360 455 L 360 431 Z Z" stroke-miterlimit="10"/></g><g transform="translate(-54,-198) scale(1,1)"><rect fill="#ffffff" stroke="none" x="360" y="416" width="28.399999999999977" height="15"/></g><g transform="translate(-54,-198) scale(1,1)"><path fill="none" stroke="#000000" d="M 360 416 L 388.4 416 L 388.4 431 L 360 431 L 360 416 Z Z" stroke-miterlimit="10"/></g><g transform="translate(-54,-198) scale(1,1)"><rect fill="#ffffff" stroke="none" x="360" y="430" width="71" height="25"/></g><g transform="translate(-54,-198) scale(1,1)"><path fill="none" stroke="#000000" d="M 360 430 L 431 430 L 431 455 L 360 455 L 360 430 Z Z" stroke-miterlimit="10"/></g><g transform="translate(-54,-198) scale(1,1)"><g><path fill="none" stroke="none"/><text fill="#000000" stroke="none" font-family="Arial" font-size="13px" font-style="normal" font-weight="bold" text-decoration="none" x="374.1845703125" y="450.5">Images</text></g></g><g transform="translate(-54,-198) scale(1,1)"><path fill="none" stroke="#000000" d="M 395 368 L 395 415" stroke-miterlimit="10" stroke-dasharray="3"/></g><g transform="translate(-54,-198) scale(1,1)"><path fill="none" stroke="#000000" d="M 390.790482243984 404.83732514237585 L 395 415 L 399.209517756016 404.83732514237585" stroke-miterlimit="10"/></g><g transform="translate(-54,-198) scale(1,1)"><path fill="none" stroke="#000000" d="M 359 347 L 300 347" stroke-miterlimit="10" stroke-dasharray="3"/></g><g transform="translate(-54,-198) scale(1,1)"><path fill="none" stroke="#000000" d="M 310.16267485762415 342.790482243984 L 300 347 L 310.16267485762415 351.209517756016" stroke-miterlimit="10"/></g><g transform="translate(-54,-198) scale(1,1)"><path fill="none" stroke="#000000" d="M 363 368 L 290 415" stroke-miterlimit="10" stroke-dasharray="3"/></g><g transform="translate(-54,-198) scale(1,1)"><path fill="none" stroke="#000000" d="M 296.26603952694177 405.95916217119213 L 290 415 L 300.82359677704136 413.03792130432555" stroke-miterlimit="10"/></g><g transform="translate(-54,-198) scale(1,1)"><path fill="none" stroke="#000000" d="M 259 415 L 257 368" stroke-miterlimit="10" stroke-dasharray="3"/></g><g transform="translate(-54,-198) scale(1,1)"><path fill="none" stroke="#000000" d="M 261.63777492303933 377.9745197259431 L 257 368 L 253.22635156040468 378.33245263499134" stroke-miterlimit="10"/></g><g transform="translate(-54,-198) scale(1,1)"><rect fill="#C0C0C0" stroke="none" x="231" y="215" width="27.5966796875" height="15" opacity="0.2"/></g><g transform="translate(-54,-198) scale(1,1)"><rect fill="#C0C0C0" stroke="none" x="231" y="229" width="68.99169921875" height="25" opacity="0.2"/></g><g transform="translate(-54,-198) scale(1,1)"><rect fill="#ffffff" stroke="none" x="224" y="223" width="68.99169921875" height="24"/></g><g transform="translate(-54,-198) scale(1,1)"><path fill="none" stroke="#000000" d="M 224 223 L 292.99169921875 223 L 292.99169921875 247 L 224 247 L 224 223 Z Z" stroke-miterlimit="10"/></g><g transform="translate(-54,-198) scale(1,1)"><rect fill="#ffffff" stroke="none" x="224" y="208" width="27.5966796875" height="15"/></g><g transform="translate(-54,-198) scale(1,1)"><path fill="none" stroke="#000000" d="M 224 208 L 251.5966796875 208 L 251.5966796875 223 L 224 223 L 224 208 Z Z" stroke-miterlimit="10"/></g><g transform="translate(-54,-198) scale(1,1)"><rect fill="#ffffff" stroke="none" x="224" y="222" width="68.99169921875" height="25"/></g><g transform="translate(-54,-198) scale(1,1)"><path fill="none" stroke="#000000" d="M 224 222 L 292.99169921875 222 L 292.99169921875 247 L 224 247 L 224 222 Z Z" stroke-miterlimit="10"/></g><g transform="translate(-54,-198) scale(1,1)"><g><path fill="none" stroke="none"/><text fill="#000000" stroke="none" font-family="Arial" font-size="13px" font-style="normal" font-weight="bold" text-decoration="none" x="242.6044921875" y="242.5">Tests</text></g></g><g transform="translate(-54,-198) scale(1,1)"><path fill="none" stroke="#000000" d="M 258 248 L 257 327" stroke-miterlimit="10" stroke-dasharray="3"/></g><g transform="translate(-54,-198) scale(1,1)"><path fill="none" stroke="#000000" d="M 252.91945059949282 316.78485846451355 L 257 327 L 261.3378116984575 316.89141999741184" stroke-miterlimit="10"/></g><g transform="translate(-54,-198) scale(1,1)"><rect fill="#C0C0C0" stroke="none" x="71" y="335" width="27.5966796875" height="15" opacity="0.2"/></g><g transform="translate(-54,-198) scale(1,1)"><rect fill="#C0C0C0" stroke="none" x="71" y="349" width="68.99169921875" height="25" opacity="0.2"/></g><g transform="translate(-54,-198) scale(1,1)"><rect fill="#ffffff" stroke="none" x="64" y="343" width="68.99169921875" height="24"/></g><g transform="translate(-54,-198) scale(1,1)"><path fill="none" stroke="#000000" d="M 64 343 L 132.99169921875 343 L 132.99169921875 367 L 64 367 L 64 343 Z Z" stroke-miterlimit="10"/></g><g transform="translate(-54,-198) scale(1,1)"><rect fill="#ffffff" stroke="none" x="64" y="328" width="27.5966796875" height="15"/></g><g transform="translate(-54,-198) scale(1,1)"><path fill="none" stroke="#000000" d="M 64 328 L 91.5966796875 328 L 91.5966796875 343 L 64 343 L 64 328 Z Z" stroke-miterlimit="10"/></g><g transform="translate(-54,-198) scale(1,1)"><rect fill="#ffffff" stroke="none" x="64" y="342" width="68.99169921875" height="25"/></g><g transform="translate(-54,-198) scale(1,1)"><path fill="none" stroke="#000000" d="M 64 342 L 132.99169921875 342 L 132.99169921875 367 L 64 367 L 64 342 Z Z" stroke-miterlimit="10"/></g><g transform="translate(-54,-198) scale(1,1)"><g><path fill="none" stroke="none"/><text fill="#000000" stroke="none" font-family="Arial" font-size="13px" font-style="normal" font-weight="bold" text-decoration="none" x="74.29541015625" y="362.5">UnitTest</text></g></g><g transform="translate(-54,-198) scale(1,1)"><path fill="none" stroke="#000000" d="M 134 347 L 215 347" stroke-miterlimit="10" stroke-dasharray="3"/></g><g transform="translate(-54,-198) scale(1,1)"><path fill="none" stroke="#000000" d="M 204.83732514237585 351.209517756016 L 215 347 L 204.83732514237585 342.790482243984" stroke-miterlimit="10"/></g></g></svg>